<mxfile host="Electron" modified="2024-01-07T16:52:34.293Z" agent="Mozilla/5.0 (Windows NT 10.0; Win64; x64) AppleWebKit/537.36 (KHTML, like Gecko) draw.io/22.0.2 Chrome/114.0.5735.289 Electron/25.8.4 Safari/537.36" etag="DTAXhjXu6dgRrb7lINF3" version="22.0.2" type="device">
  <diagram id="C5RBs43oDa-KdzZeNtuy" name="Page-1">
    <mxGraphModel dx="1793" dy="1045" grid="1" gridSize="10" guides="1" tooltips="1" connect="1" arrows="1" fold="1" page="1" pageScale="1" pageWidth="827" pageHeight="1169" math="0" shadow="0">
      <root>
        <mxCell id="WIyWlLk6GJQsqaUBKTNV-0" />
        <mxCell id="WIyWlLk6GJQsqaUBKTNV-1" parent="WIyWlLk6GJQsqaUBKTNV-0" />
        <mxCell id="jlQF80xDcKmNRiPYEfZf-4" style="edgeStyle=orthogonalEdgeStyle;rounded=0;orthogonalLoop=1;jettySize=auto;html=1;exitX=0.5;exitY=1;exitDx=0;exitDy=0;exitPerimeter=0;entryX=0.5;entryY=0;entryDx=0;entryDy=0;" edge="1" parent="WIyWlLk6GJQsqaUBKTNV-1" source="jlQF80xDcKmNRiPYEfZf-2" target="jlQF80xDcKmNRiPYEfZf-3">
          <mxGeometry relative="1" as="geometry" />
        </mxCell>
        <mxCell id="jlQF80xDcKmNRiPYEfZf-2" value="START" style="strokeWidth=2;html=1;shape=mxgraph.flowchart.start_2;whiteSpace=wrap;" vertex="1" parent="WIyWlLk6GJQsqaUBKTNV-1">
          <mxGeometry x="390" y="30" width="70" height="70" as="geometry" />
        </mxCell>
        <mxCell id="jlQF80xDcKmNRiPYEfZf-6" style="edgeStyle=orthogonalEdgeStyle;rounded=0;orthogonalLoop=1;jettySize=auto;html=1;exitX=0.5;exitY=1;exitDx=0;exitDy=0;entryX=0.5;entryY=0;entryDx=0;entryDy=0;" edge="1" parent="WIyWlLk6GJQsqaUBKTNV-1" source="jlQF80xDcKmNRiPYEfZf-3" target="jlQF80xDcKmNRiPYEfZf-5">
          <mxGeometry relative="1" as="geometry" />
        </mxCell>
        <mxCell id="jlQF80xDcKmNRiPYEfZf-3" value="PRINT INTERFACE" style="rounded=1;whiteSpace=wrap;html=1;" vertex="1" parent="WIyWlLk6GJQsqaUBKTNV-1">
          <mxGeometry x="364" y="140" width="120" height="60" as="geometry" />
        </mxCell>
        <mxCell id="jlQF80xDcKmNRiPYEfZf-5" value="ENTER EMAIL &lt;br&gt;OR ABORT &lt;br&gt;OPERATION" style="shape=parallelogram;html=1;strokeWidth=2;perimeter=parallelogramPerimeter;whiteSpace=wrap;rounded=1;arcSize=12;size=0.23;" vertex="1" parent="WIyWlLk6GJQsqaUBKTNV-1">
          <mxGeometry x="349" y="230" width="150" height="80" as="geometry" />
        </mxCell>
        <mxCell id="jlQF80xDcKmNRiPYEfZf-10" style="edgeStyle=orthogonalEdgeStyle;rounded=0;orthogonalLoop=1;jettySize=auto;html=1;exitX=0.5;exitY=1;exitDx=0;exitDy=0;exitPerimeter=0;entryX=0.5;entryY=0;entryDx=0;entryDy=0;" edge="1" parent="WIyWlLk6GJQsqaUBKTNV-1" source="jlQF80xDcKmNRiPYEfZf-7" target="jlQF80xDcKmNRiPYEfZf-9">
          <mxGeometry relative="1" as="geometry" />
        </mxCell>
        <mxCell id="jlQF80xDcKmNRiPYEfZf-11" value="TRUE" style="edgeLabel;html=1;align=center;verticalAlign=middle;resizable=0;points=[];" vertex="1" connectable="0" parent="jlQF80xDcKmNRiPYEfZf-10">
          <mxGeometry x="-0.7829" y="-1" relative="1" as="geometry">
            <mxPoint x="27" y="-80" as="offset" />
          </mxGeometry>
        </mxCell>
        <mxCell id="jlQF80xDcKmNRiPYEfZf-16" style="edgeStyle=orthogonalEdgeStyle;rounded=0;orthogonalLoop=1;jettySize=auto;html=1;exitX=0;exitY=0.5;exitDx=0;exitDy=0;exitPerimeter=0;entryX=1;entryY=0.25;entryDx=0;entryDy=0;" edge="1" parent="WIyWlLk6GJQsqaUBKTNV-1" source="jlQF80xDcKmNRiPYEfZf-7" target="jlQF80xDcKmNRiPYEfZf-12">
          <mxGeometry relative="1" as="geometry" />
        </mxCell>
        <mxCell id="jlQF80xDcKmNRiPYEfZf-30" value="FALSE" style="edgeLabel;html=1;align=center;verticalAlign=middle;resizable=0;points=[];" vertex="1" connectable="0" parent="jlQF80xDcKmNRiPYEfZf-16">
          <mxGeometry x="-0.221" relative="1" as="geometry">
            <mxPoint x="32" y="-10" as="offset" />
          </mxGeometry>
        </mxCell>
        <mxCell id="jlQF80xDcKmNRiPYEfZf-7" value="CHECK IF IT&#39;S&amp;nbsp;&lt;br&gt;&quot;ABORT&quot;" style="strokeWidth=2;html=1;shape=mxgraph.flowchart.decision;whiteSpace=wrap;" vertex="1" parent="WIyWlLk6GJQsqaUBKTNV-1">
          <mxGeometry x="369" y="360" width="110" height="110" as="geometry" />
        </mxCell>
        <mxCell id="jlQF80xDcKmNRiPYEfZf-8" style="edgeStyle=orthogonalEdgeStyle;rounded=0;orthogonalLoop=1;jettySize=auto;html=1;exitX=0.5;exitY=1;exitDx=0;exitDy=0;entryX=0.5;entryY=0;entryDx=0;entryDy=0;entryPerimeter=0;" edge="1" parent="WIyWlLk6GJQsqaUBKTNV-1" source="jlQF80xDcKmNRiPYEfZf-5" target="jlQF80xDcKmNRiPYEfZf-7">
          <mxGeometry relative="1" as="geometry" />
        </mxCell>
        <mxCell id="jlQF80xDcKmNRiPYEfZf-9" value="END" style="ellipse;whiteSpace=wrap;html=1;aspect=fixed;" vertex="1" parent="WIyWlLk6GJQsqaUBKTNV-1">
          <mxGeometry x="620" y="1089" width="60" height="60" as="geometry" />
        </mxCell>
        <mxCell id="jlQF80xDcKmNRiPYEfZf-17" style="edgeStyle=orthogonalEdgeStyle;rounded=0;orthogonalLoop=1;jettySize=auto;html=1;exitX=0.5;exitY=1;exitDx=0;exitDy=0;entryX=0.5;entryY=0;entryDx=0;entryDy=0;" edge="1" parent="WIyWlLk6GJQsqaUBKTNV-1" source="jlQF80xDcKmNRiPYEfZf-12" target="jlQF80xDcKmNRiPYEfZf-13">
          <mxGeometry relative="1" as="geometry" />
        </mxCell>
        <mxCell id="jlQF80xDcKmNRiPYEfZf-12" value="ENTER FIRST&lt;br&gt;NAME" style="shape=parallelogram;html=1;strokeWidth=2;perimeter=parallelogramPerimeter;whiteSpace=wrap;rounded=1;arcSize=12;size=0.23;" vertex="1" parent="WIyWlLk6GJQsqaUBKTNV-1">
          <mxGeometry x="90" y="380" width="150" height="80" as="geometry" />
        </mxCell>
        <mxCell id="jlQF80xDcKmNRiPYEfZf-18" style="edgeStyle=orthogonalEdgeStyle;rounded=0;orthogonalLoop=1;jettySize=auto;html=1;exitX=0.5;exitY=1;exitDx=0;exitDy=0;entryX=0.5;entryY=0;entryDx=0;entryDy=0;" edge="1" parent="WIyWlLk6GJQsqaUBKTNV-1" source="jlQF80xDcKmNRiPYEfZf-13" target="jlQF80xDcKmNRiPYEfZf-14">
          <mxGeometry relative="1" as="geometry" />
        </mxCell>
        <mxCell id="jlQF80xDcKmNRiPYEfZf-13" value="ENTER LAST&lt;br&gt;NAME" style="shape=parallelogram;html=1;strokeWidth=2;perimeter=parallelogramPerimeter;whiteSpace=wrap;rounded=1;arcSize=12;size=0.23;" vertex="1" parent="WIyWlLk6GJQsqaUBKTNV-1">
          <mxGeometry x="90" y="490" width="150" height="80" as="geometry" />
        </mxCell>
        <mxCell id="jlQF80xDcKmNRiPYEfZf-19" style="edgeStyle=orthogonalEdgeStyle;rounded=0;orthogonalLoop=1;jettySize=auto;html=1;exitX=0.5;exitY=1;exitDx=0;exitDy=0;entryX=0.5;entryY=0;entryDx=0;entryDy=0;" edge="1" parent="WIyWlLk6GJQsqaUBKTNV-1" source="jlQF80xDcKmNRiPYEfZf-14" target="jlQF80xDcKmNRiPYEfZf-15">
          <mxGeometry relative="1" as="geometry" />
        </mxCell>
        <mxCell id="jlQF80xDcKmNRiPYEfZf-14" value="ENTER ADDRESS" style="shape=parallelogram;html=1;strokeWidth=2;perimeter=parallelogramPerimeter;whiteSpace=wrap;rounded=1;arcSize=12;size=0.23;" vertex="1" parent="WIyWlLk6GJQsqaUBKTNV-1">
          <mxGeometry x="90" y="600" width="150" height="80" as="geometry" />
        </mxCell>
        <mxCell id="jlQF80xDcKmNRiPYEfZf-15" value="ENTER INTERESTS" style="shape=parallelogram;html=1;strokeWidth=2;perimeter=parallelogramPerimeter;whiteSpace=wrap;rounded=1;arcSize=12;size=0.23;" vertex="1" parent="WIyWlLk6GJQsqaUBKTNV-1">
          <mxGeometry x="80" y="710" width="150" height="80" as="geometry" />
        </mxCell>
        <mxCell id="jlQF80xDcKmNRiPYEfZf-23" style="edgeStyle=orthogonalEdgeStyle;rounded=0;orthogonalLoop=1;jettySize=auto;html=1;exitX=0.5;exitY=1;exitDx=0;exitDy=0;exitPerimeter=0;entryX=0.5;entryY=0;entryDx=0;entryDy=0;" edge="1" parent="WIyWlLk6GJQsqaUBKTNV-1" source="jlQF80xDcKmNRiPYEfZf-20" target="jlQF80xDcKmNRiPYEfZf-22">
          <mxGeometry relative="1" as="geometry" />
        </mxCell>
        <mxCell id="jlQF80xDcKmNRiPYEfZf-32" value="TRUE" style="edgeLabel;html=1;align=center;verticalAlign=middle;resizable=0;points=[];" vertex="1" connectable="0" parent="jlQF80xDcKmNRiPYEfZf-23">
          <mxGeometry x="-0.0667" y="-3" relative="1" as="geometry">
            <mxPoint x="18" y="-4" as="offset" />
          </mxGeometry>
        </mxCell>
        <mxCell id="jlQF80xDcKmNRiPYEfZf-26" style="edgeStyle=orthogonalEdgeStyle;rounded=0;orthogonalLoop=1;jettySize=auto;html=1;exitX=1;exitY=0.5;exitDx=0;exitDy=0;exitPerimeter=0;entryX=0;entryY=0.5;entryDx=0;entryDy=0;" edge="1" parent="WIyWlLk6GJQsqaUBKTNV-1" source="jlQF80xDcKmNRiPYEfZf-20" target="jlQF80xDcKmNRiPYEfZf-25">
          <mxGeometry relative="1" as="geometry" />
        </mxCell>
        <mxCell id="jlQF80xDcKmNRiPYEfZf-31" value="FALSE" style="edgeLabel;html=1;align=center;verticalAlign=middle;resizable=0;points=[];" vertex="1" connectable="0" parent="jlQF80xDcKmNRiPYEfZf-26">
          <mxGeometry x="-0.1795" y="-4" relative="1" as="geometry">
            <mxPoint x="-1" y="-24" as="offset" />
          </mxGeometry>
        </mxCell>
        <mxCell id="jlQF80xDcKmNRiPYEfZf-20" value="CHECK IF&lt;br&gt;EMAIL&lt;br&gt;EXIST&lt;br&gt;IN&lt;br&gt;DATABASE" style="strokeWidth=2;html=1;shape=mxgraph.flowchart.decision;whiteSpace=wrap;" vertex="1" parent="WIyWlLk6GJQsqaUBKTNV-1">
          <mxGeometry x="85" y="810" width="140" height="140" as="geometry" />
        </mxCell>
        <mxCell id="jlQF80xDcKmNRiPYEfZf-21" style="edgeStyle=orthogonalEdgeStyle;rounded=0;orthogonalLoop=1;jettySize=auto;html=1;exitX=0.5;exitY=1;exitDx=0;exitDy=0;entryX=0.5;entryY=0;entryDx=0;entryDy=0;entryPerimeter=0;" edge="1" parent="WIyWlLk6GJQsqaUBKTNV-1" source="jlQF80xDcKmNRiPYEfZf-15" target="jlQF80xDcKmNRiPYEfZf-20">
          <mxGeometry relative="1" as="geometry" />
        </mxCell>
        <mxCell id="jlQF80xDcKmNRiPYEfZf-24" style="edgeStyle=orthogonalEdgeStyle;rounded=0;orthogonalLoop=1;jettySize=auto;html=1;exitX=0.5;exitY=1;exitDx=0;exitDy=0;entryX=0.5;entryY=0;entryDx=0;entryDy=0;" edge="1" parent="WIyWlLk6GJQsqaUBKTNV-1" source="jlQF80xDcKmNRiPYEfZf-22" target="jlQF80xDcKmNRiPYEfZf-9">
          <mxGeometry relative="1" as="geometry" />
        </mxCell>
        <mxCell id="jlQF80xDcKmNRiPYEfZf-22" value="PRINT ERROR" style="rounded=1;whiteSpace=wrap;html=1;" vertex="1" parent="WIyWlLk6GJQsqaUBKTNV-1">
          <mxGeometry x="95" y="990" width="120" height="60" as="geometry" />
        </mxCell>
        <mxCell id="jlQF80xDcKmNRiPYEfZf-33" style="edgeStyle=orthogonalEdgeStyle;rounded=0;orthogonalLoop=1;jettySize=auto;html=1;exitX=0.5;exitY=1;exitDx=0;exitDy=0;entryX=0.5;entryY=0;entryDx=0;entryDy=0;" edge="1" parent="WIyWlLk6GJQsqaUBKTNV-1" source="jlQF80xDcKmNRiPYEfZf-25" target="jlQF80xDcKmNRiPYEfZf-27">
          <mxGeometry relative="1" as="geometry" />
        </mxCell>
        <mxCell id="jlQF80xDcKmNRiPYEfZf-25" value="ADD NEW USER" style="rounded=1;whiteSpace=wrap;html=1;" vertex="1" parent="WIyWlLk6GJQsqaUBKTNV-1">
          <mxGeometry x="270" y="850" width="120" height="60" as="geometry" />
        </mxCell>
        <mxCell id="jlQF80xDcKmNRiPYEfZf-34" style="edgeStyle=orthogonalEdgeStyle;rounded=0;orthogonalLoop=1;jettySize=auto;html=1;exitX=0.5;exitY=1;exitDx=0;exitDy=0;entryX=0.5;entryY=0;entryDx=0;entryDy=0;" edge="1" parent="WIyWlLk6GJQsqaUBKTNV-1" source="jlQF80xDcKmNRiPYEfZf-27" target="jlQF80xDcKmNRiPYEfZf-9">
          <mxGeometry relative="1" as="geometry">
            <Array as="points">
              <mxPoint x="330" y="1020" />
              <mxPoint x="650" y="1020" />
            </Array>
          </mxGeometry>
        </mxCell>
        <mxCell id="jlQF80xDcKmNRiPYEfZf-27" value="PRINT SUCCESS" style="rounded=1;whiteSpace=wrap;html=1;" vertex="1" parent="WIyWlLk6GJQsqaUBKTNV-1">
          <mxGeometry x="270" y="930" width="120" height="60" as="geometry" />
        </mxCell>
      </root>
    </mxGraphModel>
  </diagram>
</mxfile>
